<svg viewBox="0 0 575 575" class="roots-wrapper"><g transform="rotate(0 0 0)"><svg viewBoxSize="575" data-root-id="8092742982093" xmlns="http://www.w3.org/2000/svg" xmlns:xlink="http://www.w3.org/1999/xlink" version="1.1" id="Layer_1" x="207.6000114440918" y="138.9550018310547" viewBox="133.5 65.5 464.20001220703125 668.0999755859375" xml:space="preserve" height="230" width="159.796875" preserveAspectRatio="xMinYMin" zoom="1" editorType="buyer" data-layer-role="icon" style="position: absolute; height: 230px; width: 159.797px; top: 138.955px; left: 207.6px;"><path class="st0" d="M524.9,207.3l-2.7-141.8L408.8,148c-14-2.6-28.4-4.1-43.2-4.1C237.4,144,133.5,247.9,133.5,376   c0,73,33.7,138.2,86.5,180.7l-21,176.9c0,0,123.4-91.7,151.6-126c4.9,0.3,9.9,0.5,15,0.5c128.2,0,232.1-103.9,232.1-232.1   C597.7,309.6,569.7,249.6,524.9,207.3z" name="Layer %{number}" zoom="1" data-layer-id="3333287782148" style="fill: rgb(2, 60, 161);"></path><path class="st1" d="M194.1,341.6l132.7,9.6l0.4,0L258.8,478c3.4-3.4,8.1-5.4,14.1-5.7c18.2-1,42.3,14.6,59.2,36.9l71-133.8    l1.1,0.7l95.2,58.9l2.7-329.2L194.1,341.6z M247.4,324.7L247.4,324.7L247.4,324.7L247.4,324.7z" name="Layer %{number}" zoom="1" data-layer-id="2594464382173" style="fill: rgb(255, 255, 255); fill-opacity: 1;"></path><polygon class="st2" points="305.6,390.8 305.4,390.7 203.4,382.2 206.4,396.4 297.6,405.2 297.6,405.2   " name="Layer %{number}" zoom="1" data-layer-id="3032456782203" style="fill: rgb(244, 39, 6);"></polygon><path class="st2" d="M507.6,470.2l-100.8-54l-81.3,136.7c-22.2-43-60.1-42.2-60.1-42.2c-16.7,3.4-23.1,34.8-23.1,34.8l-15.7,128    c0,0,95.8-75,102.6-91.1l82.3-149.8l97,55.3L507.6,470.2z" name="Layer %{number}" zoom="1" data-layer-id="7107139982234" style="fill: rgb(244, 39, 6);"></path><path class="st3" d="M284.1,570.7l-25.3,18.2c0,0,11.7-23.9,10.8-32.3c-0.6-5.6-13.3,16.7-21.7,32.2l-3.7,52.5    c0,0,17.1-17.5,32.9-34.7c-5.8,5-10.2,8.1-10.2,8.1L284.1,570.7z" name="Layer %{number}" zoom="1" data-layer-id="3348682182258" style="fill: rgb(249, 141, 61);"></path><path class="st4" d="M304.4,572.2c1-3,1.4-6.1,1.2-9c-0.1-1.9-0.6-3.8-1.4-5.6c-10.1-23.5-40.4-42.3-52.8-12.2l-10.7,57.2    c0,0,3.1-6,7.3-13.7c8.4-15.5,21.1-37.8,21.7-32.2c0.9,8.4-10.8,32.3-10.8,32.3l25.3-18.2l-17.1,44c0,0,4.4-3.1,10.2-8.1    C286.8,598.4,300.2,585.1,304.4,572.2z" name="Layer %{number}" zoom="1" data-layer-id="3083185382282" style="fill: rgb(247, 202, 62);"></path></svg></g><g transform="rotate(0 0 0)"><svg viewBoxSize="575" data-root-id="9275504982377" xmlns="http://www.w3.org/2000/svg" y="445.9550018310547" viewBox="0 0 0 0" x="287.50000869750977" height="0" width="0" fontUrl="http://fonts.gstatic.com/s/montserrat/v26/JTUHjIg1_i6t8kCHKm4532VJOt5-QNFgpCu170w-Y3tcoqK5.ttf" zoom="1" editorType="buyer" data-layer-role="slogan" style="position: absolute; top: 445.955px; width: 0px; height: 0px; left: 287.5px;"><g data-horizontal-grow="center" zoom="1" root="[object Object]" style="fill: rgb(40, 67, 137); fill-opacity: 1;"><path d="" transform="translate(0, 0)"></path></g></svg></g><g transform="rotate(0 0 0)"><svg viewBoxSize="575" data-root-id="2514423382304" xmlns="http://www.w3.org/2000/svg" y="381.9550018310547" viewBox="-0.2800000011920929 10.979999542236328 513.52001953125 54.09000015258789" x="30.739990692138676" height="54.09000015258789" width="513.52001953125" fontUrl="http://fonts.gstatic.com/s/montserrat/v26/JTUHjIg1_i6t8kCHKm4532VJOt5-QNFgpCu170w-Y3tcoqK5.ttf" zoom="1" editorType="buyer" data-layer-role="brandName" style="position: absolute; top: 381.955px; width: 513.52px; height: 54.09px; left: 30.74px;"><g data-horizontal-grow="center" zoom="1" root="[object Object]" style="fill: rgb(40, 67, 137); fill-opacity: 1;"><path d="M24.02 54.21L16.86 54.21L-0.28 15.01L7.62 15.01L22.90 50.46L18.37 50.46L33.82 15.01L41.10 15.01L24.02 54.21ZM70.45 54.21L63.84 54.21L63.84 48.16L63.45 46.87L63.45 36.29Q63.45 33.21 61.60 31.50Q59.75 29.79 56 29.79L56 29.79Q53.48 29.79 51.04 30.58Q48.61 31.36 46.93 32.76L46.93 32.76L44.18 27.66Q46.59 25.82 49.92 24.89Q53.26 23.97 56.84 23.97L56.84 23.97Q63.34 23.97 66.89 27.08Q70.45 30.18 70.45 36.68L70.45 36.68L70.45 54.21ZM54.43 54.60L54.43 54.60Q51.07 54.60 48.55 53.45Q46.03 52.30 44.66 50.26Q43.29 48.22 43.29 45.64L43.29 45.64Q43.29 43.12 44.49 41.10Q45.70 39.09 48.44 37.91Q51.18 36.74 55.72 36.74L55.72 36.74L64.40 36.74L64.40 41.38L56.22 41.38Q52.64 41.38 51.41 42.53Q50.18 43.68 50.18 45.36L50.18 45.36Q50.18 47.26 51.69 48.38Q53.20 49.50 55.89 49.50L55.89 49.50Q58.46 49.50 60.51 48.33Q62.55 47.15 63.45 44.86L63.45 44.86L64.62 49.06Q63.62 51.69 61.01 53.14Q58.41 54.60 54.43 54.60ZM96.38 23.97L96.38 23.97Q99.96 23.97 102.79 25.37Q105.62 26.77 107.24 29.65Q108.86 32.54 108.86 37.07L108.86 37.07L108.86 54.21L101.86 54.21L101.86 37.97Q101.86 33.99 99.99 32.03Q98.11 30.07 94.75 30.07L94.75 30.07Q92.29 30.07 90.38 31.08Q88.48 32.09 87.44 34.08Q86.41 36.06 86.41 39.09L86.41 39.09L86.41 54.21L79.41 54.21L79.41 24.30L86.07 24.30L86.07 32.37L84.90 29.90Q86.46 27.05 89.46 25.51Q92.46 23.97 96.38 23.97ZM124.77 54.21L117.77 54.21L117.77 24.30L124.77 24.30L124.77 54.21ZM121.30 19.38L121.30 19.38Q119.34 19.38 118.08 18.14Q116.82 16.91 116.82 15.18L116.82 15.18Q116.82 13.38 118.08 12.18Q119.34 10.98 121.30 10.98L121.30 10.98Q123.26 10.98 124.52 12.12Q125.78 13.27 125.78 15.01L125.78 15.01Q125.78 16.86 124.54 18.12Q123.31 19.38 121.30 19.38ZM140.95 54.21L133.95 54.21L133.95 12.66L140.95 12.66L140.95 54.21ZM157.14 54.21L150.14 54.21L150.14 12.66L157.14 12.66L157.14 54.21ZM191.35 54.21L184.74 54.21L184.74 48.16L184.35 46.87L184.35 36.29Q184.35 33.21 182.50 31.50Q180.66 29.79 176.90 29.79L176.90 29.79Q174.38 29.79 171.95 30.58Q169.51 31.36 167.83 32.76L167.83 32.76L165.09 27.66Q167.50 25.82 170.83 24.89Q174.16 23.97 177.74 23.97L177.74 23.97Q184.24 23.97 187.80 27.08Q191.35 30.18 191.35 36.68L191.35 36.68L191.35 54.21ZM175.34 54.60L175.34 54.60Q171.98 54.60 169.46 53.45Q166.94 52.30 165.56 50.26Q164.19 48.22 164.19 45.64L164.19 45.64Q164.19 43.12 165.40 41.10Q166.60 39.09 169.34 37.91Q172.09 36.74 176.62 36.74L176.62 36.74L185.30 36.74L185.30 41.38L177.13 41.38Q173.54 41.38 172.31 42.53Q171.08 43.68 171.08 45.36L171.08 45.36Q171.08 47.26 172.59 48.38Q174.10 49.50 176.79 49.50L176.79 49.50Q179.37 49.50 181.41 48.33Q183.46 47.15 184.35 44.86L184.35 44.86L185.53 49.06Q184.52 51.69 181.92 53.14Q179.31 54.60 175.34 54.60ZM231.67 54.21L224.39 54.21L224.39 21.17L211.40 21.17L211.40 15.01L244.66 15.01L244.66 21.17L231.67 21.17L231.67 54.21ZM263.54 54.60L263.54 54.60Q258.55 54.60 254.83 52.61Q251.10 50.62 249.06 47.15Q247.02 43.68 247.02 39.26L247.02 39.26Q247.02 34.78 249.00 31.33Q250.99 27.89 254.49 25.93Q257.99 23.97 262.47 23.97L262.47 23.97Q266.84 23.97 270.26 25.87Q273.67 27.78 275.63 31.25Q277.59 34.72 277.59 39.42L277.59 39.42Q277.59 39.87 277.56 40.43Q277.54 40.99 277.48 41.50L277.48 41.50L252.56 41.50L252.56 36.85L273.78 36.85L271.04 38.30Q271.10 35.73 269.98 33.77Q268.86 31.81 266.92 30.69Q264.99 29.57 262.47 29.57L262.47 29.57Q259.90 29.57 257.96 30.69Q256.03 31.81 254.94 33.80Q253.85 35.78 253.85 38.47L253.85 38.47L253.85 39.59Q253.85 42.28 255.08 44.35Q256.31 46.42 258.55 47.54Q260.79 48.66 263.70 48.66L263.70 48.66Q266.22 48.66 268.24 47.88Q270.26 47.10 271.82 45.42L271.82 45.42L275.58 49.73Q273.56 52.08 270.51 53.34Q267.46 54.60 263.54 54.60ZM322.06 23.97L322.06 23.97Q325.64 23.97 328.41 25.37Q331.18 26.77 332.75 29.65Q334.32 32.54 334.32 37.07L334.32 37.07L334.32 54.21L327.32 54.21L327.32 37.97Q327.32 33.99 325.58 32.03Q323.85 30.07 320.60 30.07L320.60 30.07Q318.30 30.07 316.54 31.08Q314.78 32.09 313.80 34.05Q312.82 36.01 312.82 39.03L312.82 39.03L312.82 54.21L305.82 54.21L305.82 37.97Q305.82 33.99 304.08 32.03Q302.34 30.07 299.10 30.07L299.10 30.07Q296.80 30.07 295.04 31.08Q293.27 32.09 292.29 34.05Q291.31 36.01 291.31 39.03L291.31 39.03L291.31 54.21L284.31 54.21L284.31 24.30L290.98 24.30L290.98 32.26L289.80 29.90Q291.31 26.99 294.20 25.48Q297.08 23.97 300.78 23.97L300.78 23.97Q304.98 23.97 308.08 26.04Q311.19 28.11 312.20 32.31L312.20 32.31L309.46 31.36Q310.91 28.00 314.27 25.98Q317.63 23.97 322.06 23.97ZM359.86 54.60L359.86 54.60Q356.22 54.60 353.22 52.92Q350.22 51.24 348.46 47.85Q346.70 44.46 346.70 39.26L346.70 39.26Q346.70 33.99 348.40 30.63Q350.11 27.27 353.08 25.62Q356.05 23.97 359.86 23.97L359.86 23.97Q364.28 23.97 367.67 25.87Q371.06 27.78 373.04 31.19Q375.03 34.61 375.03 39.26L375.03 39.26Q375.03 43.90 373.04 47.35Q371.06 50.79 367.67 52.70Q364.28 54.60 359.86 54.60ZM350.28 65.07L343.28 65.07L343.28 24.30L349.94 24.30L349.94 31.36L349.72 39.31L350.28 47.26L350.28 65.07ZM359.07 48.61L359.07 48.61Q361.59 48.61 363.58 47.49Q365.57 46.37 366.74 44.24Q367.92 42.11 367.92 39.26L367.92 39.26Q367.92 36.34 366.74 34.24Q365.57 32.14 363.58 31.02Q361.59 29.90 359.07 29.90L359.07 29.90Q356.55 29.90 354.54 31.02Q352.52 32.14 351.34 34.24Q350.17 36.34 350.17 39.26L350.17 39.26Q350.17 42.11 351.34 44.24Q352.52 46.37 354.54 47.49Q356.55 48.61 359.07 48.61ZM388.70 54.21L381.70 54.21L381.70 12.66L388.70 12.66L388.70 54.21ZM422.91 54.21L416.30 54.21L416.30 48.16L415.91 46.87L415.91 36.29Q415.91 33.21 414.06 31.50Q412.22 29.79 408.46 29.79L408.46 29.79Q405.94 29.79 403.51 30.58Q401.07 31.36 399.39 32.76L399.39 32.76L396.65 27.66Q399.06 25.82 402.39 24.89Q405.72 23.97 409.30 23.97L409.30 23.97Q415.80 23.97 419.36 27.08Q422.91 30.18 422.91 36.68L422.91 36.68L422.91 54.21ZM406.90 54.60L406.90 54.60Q403.54 54.60 401.02 53.45Q398.50 52.30 397.12 50.26Q395.75 48.22 395.75 45.64L395.75 45.64Q395.75 43.12 396.96 41.10Q398.16 39.09 400.90 37.91Q403.65 36.74 408.18 36.74L408.18 36.74L416.86 36.74L416.86 41.38L408.69 41.38Q405.10 41.38 403.87 42.53Q402.64 43.68 402.64 45.36L402.64 45.36Q402.64 47.26 404.15 48.38Q405.66 49.50 408.35 49.50L408.35 49.50Q410.93 49.50 412.97 48.33Q415.02 47.15 415.91 44.86L415.91 44.86L417.09 49.06Q416.08 51.69 413.48 53.14Q410.87 54.60 406.90 54.60ZM443.13 54.60L443.13 54.60Q438.20 54.60 435.51 52.05Q432.82 49.50 432.82 44.52L432.82 44.52L432.82 17.70L439.82 17.70L439.82 44.35Q439.82 46.48 440.92 47.66Q442.01 48.83 443.97 48.83L443.97 48.83Q446.32 48.83 447.89 47.60L447.89 47.60L449.85 52.58Q448.62 53.59 446.82 54.10Q445.03 54.60 443.13 54.60ZM447.83 30.13L427.90 30.13L427.90 24.53L447.83 24.53L447.83 30.13ZM469.67 54.60L469.67 54.60Q464.69 54.60 460.96 52.61Q457.24 50.62 455.20 47.15Q453.15 43.68 453.15 39.26L453.15 39.26Q453.15 34.78 455.14 31.33Q457.13 27.89 460.63 25.93Q464.13 23.97 468.61 23.97L468.61 23.97Q472.98 23.97 476.39 25.87Q479.81 27.78 481.77 31.25Q483.73 34.72 483.73 39.42L483.73 39.42Q483.73 39.87 483.70 40.43Q483.67 40.99 483.62 41.50L483.62 41.50L458.70 41.50L458.70 36.85L479.92 36.85L477.18 38.30Q477.23 35.73 476.11 33.77Q474.99 31.81 473.06 30.69Q471.13 29.57 468.61 29.57L468.61 29.57Q466.03 29.57 464.10 30.69Q462.17 31.81 461.08 33.80Q459.98 35.78 459.98 38.47L459.98 38.47L459.98 39.59Q459.98 42.28 461.22 44.35Q462.45 46.42 464.69 47.54Q466.93 48.66 469.84 48.66L469.84 48.66Q472.36 48.66 474.38 47.88Q476.39 47.10 477.96 45.42L477.96 45.42L481.71 49.73Q479.70 52.08 476.64 53.34Q473.59 54.60 469.67 54.60ZM499.69 54.60L499.69 54.60Q495.94 54.60 492.49 53.62Q489.05 52.64 487.03 51.24L487.03 51.24L489.72 45.92Q491.74 47.21 494.54 48.05Q497.34 48.89 500.14 48.89L500.14 48.89Q503.44 48.89 504.92 47.99Q506.41 47.10 506.41 45.58L506.41 45.58Q506.41 44.35 505.40 43.71Q504.39 43.06 502.77 42.73Q501.14 42.39 499.16 42.11Q497.17 41.83 495.18 41.36Q493.19 40.88 491.57 39.96Q489.94 39.03 488.94 37.46Q487.93 35.90 487.93 33.32L487.93 33.32Q487.93 30.46 489.55 28.36Q491.18 26.26 494.12 25.12Q497.06 23.97 501.09 23.97L501.09 23.97Q504.11 23.97 507.19 24.64Q510.27 25.31 512.29 26.54L512.29 26.54L509.60 31.86Q507.47 30.58 505.32 30.10Q503.16 29.62 501.03 29.62L501.03 29.62Q497.84 29.62 496.30 30.58Q494.76 31.53 494.76 32.98L494.76 32.98Q494.76 34.33 495.77 35Q496.78 35.67 498.40 36.06Q500.02 36.46 502.01 36.71Q504 36.96 505.96 37.46Q507.92 37.97 509.57 38.84Q511.22 39.70 512.23 41.27Q513.24 42.84 513.24 45.36L513.24 45.36Q513.24 48.16 511.59 50.23Q509.94 52.30 506.91 53.45Q503.89 54.60 499.69 54.60Z" transform="translate(0, 0)"></path></g></svg></g></svg>